<svg width="12" height="16" viewBox="0 0 12 16" fill="none" xmlns="http://www.w3.org/2000/svg">
<path d="M4.99999 12.1516L4.99999 1.00159C4.99999 0.718253 5.09582 0.480753 5.28749 0.289087C5.47915 0.09742 5.71665 0.00158666 5.99999 0.00158667C6.28332 0.00158668 6.52082 0.09742 6.71249 0.289087C6.90415 0.480753 6.99999 0.718253 6.99999 1.00159L6.99999 12.1516L9.84999 9.30159C10.05 9.10159 10.2833 9.00575 10.55 9.01409C10.8167 9.02242 11.05 9.11825 11.25 9.30159C11.45 9.50159 11.5542 9.73909 11.5625 10.0141C11.5708 10.2891 11.475 10.5266 11.275 10.7266L6.69999 15.3016C6.59999 15.4016 6.49165 15.4724 6.37499 15.5141C6.25832 15.5558 6.13332 15.5766 5.99999 15.5766C5.86665 15.5766 5.74165 15.5558 5.62499 15.5141C5.50832 15.4724 5.39999 15.4016 5.29999 15.3016L0.724988 10.7266C0.524988 10.5266 0.429155 10.2891 0.437488 10.0141C0.445821 9.73909 0.549988 9.50159 0.749988 9.30159C0.949988 9.11825 1.18332 9.02242 1.44999 9.01409C1.71665 9.00575 1.94999 9.10159 2.14999 9.30159L4.99999 12.1516Z" fill="#231917"/>
</svg>
