<svg width="12" height="8" viewBox="0 0 12 8" fill="none" xmlns="http://www.w3.org/2000/svg">
<path d="M4.36664 6.10028L10.0166 0.450275C10.15 0.316941 10.3055 0.250275 10.4833 0.250275C10.6611 0.250275 10.8166 0.316941 10.95 0.450275C11.0833 0.583608 11.15 0.741941 11.15 0.925275C11.15 1.10861 11.0833 1.26694 10.95 1.40027L4.83331 7.53361C4.69998 7.66694 4.54442 7.73361 4.36664 7.73361C4.18886 7.73361 4.03331 7.66694 3.89998 7.53361L1.03331 4.66694C0.899975 4.53361 0.836086 4.37527 0.841642 4.19194C0.847197 4.00861 0.916642 3.85027 1.04998 3.71694C1.18331 3.58361 1.34164 3.51694 1.52498 3.51694C1.70831 3.51694 1.86664 3.58361 1.99998 3.71694L4.36664 6.10028Z" fill="#FFDAD2"/>
</svg>
